<svg xmlns="http://www.w3.org/2000/svg" xmlns:xlink="http://www.w3.org/1999/xlink" viewBox="0 0 256 256">
  <defs>
    <linearGradient id="a" data-name="Degradado sin nombre" x1="-88.511" y1="462.614" x2="-0.398" y2="325.457" gradientTransform="matrix(1, 0, 0, -1, 178, 524)" gradientUnits="userSpaceOnUse">
      <stop offset="0" stop-color="#222"/>
      <stop offset="1" stop-color="#3f43ef"/>
    </linearGradient>
    <linearGradient id="b" data-name="Degradado sin nombre 2" x1="-67.906" y1="346.681" x2="-58.344" y2="346.681" gradientTransform="matrix(1.012, 0, 0, -1.012, 138.546, 402.14)" gradientUnits="userSpaceOnUse">
      <stop offset="0" stop-color="#0e0e0e"/>
      <stop offset="1" stop-color="#8b8b8b"/>
    </linearGradient>
    <linearGradient id="c" data-name="Degradado sin nombre 3" x1="-50.881" y1="335.245" x2="-40.032" y2="344.336" gradientTransform="matrix(1.132, -0.073, -0.074, -1.12, 140.081, 436.037)" gradientUnits="userSpaceOnUse">
      <stop offset="0" stop-color="#0e0e0e"/>
      <stop offset="0.765" stop-color="#c7c7c7"/>
      <stop offset="1" stop-color="#151515"/>
    </linearGradient>
    <linearGradient id="d" data-name="Degradado sin nombre 4" x1="-64.1" y1="329.681" x2="-33.368" y2="329.681" gradientTransform="matrix(1.012, 0, 0, -1.012, 110.21, 402.14)" xlink:href="#b"/>
    <linearGradient id="e" data-name="Degradado sin nombre 5" x1="-64.1" y1="329.681" x2="-33.368" y2="329.681" gradientTransform="matrix(1.012, 0, 0, -1.012, 111.232, 402.651)" xlink:href="#c"/>
    <linearGradient id="f" data-name="Degradado sin nombre 6" x1="-64.1" y1="329.681" x2="-33.368" y2="329.681" gradientTransform="matrix(1.012, 0, 0, -1.012, 112.234, 404.164)" xlink:href="#b"/>
    <linearGradient id="g" data-name="Degradado sin nombre 7" x1="-64.1" y1="329.681" x2="-33.368" y2="329.681" gradientTransform="matrix(1.012, 0, 0, -1.012, 113.256, 404.675)" xlink:href="#c"/>
    <linearGradient id="h" data-name="Degradado sin nombre 8" x1="-64.1" y1="329.681" x2="-33.368" y2="329.681" gradientTransform="matrix(1.012, 0, 0, -1.012, 108.186, 400.116)" xlink:href="#b"/>
    <linearGradient id="i" data-name="Degradado sin nombre 9" x1="-64.1" y1="329.681" x2="-33.368" y2="329.681" gradientTransform="matrix(1.012, 0, 0, -1.012, 109.208, 400.627)" xlink:href="#c"/>
    <linearGradient id="j" data-name="Degradado sin nombre 10" x1="-96.767" y1="305.194" x2="-37.935" y2="347.62" gradientTransform="matrix(1.012, 0, 0, -1.052, 155.19, 423.557)" xlink:href="#b"/>
    <linearGradient id="k" data-name="Degradado sin nombre 11" x1="-96.767" y1="305.194" x2="-37.935" y2="347.62" gradientTransform="matrix(1.012, 0, 0, -1.052, 155.701, 424.324)" xlink:href="#b"/>
    <linearGradient id="l" data-name="Degradado sin nombre 12" x1="-67.906" y1="346.681" x2="-58.344" y2="346.681" gradientTransform="matrix(1.012, 0, 0, -1.012, 110.21, 402.14)" xlink:href="#b"/>
    <linearGradient id="m" data-name="Degradado sin nombre 13" x1="-91.409" y1="317.154" x2="-64.912" y2="310.025" gradientTransform="matrix(0.73, -1.158, -1.086, -0.224, 479.366, 74.079)" gradientUnits="userSpaceOnUse">
      <stop offset="0" stop-color="#525252"/>
      <stop offset="1" stop-color="#e8e8e8"/>
    </linearGradient>
    <linearGradient id="n" data-name="Degradado sin nombre 14" x1="35.835" y1="415.298" x2="481.281" y2="-362.742" gradientTransform="matrix(0.292, 0, 0, -0.166, 39.275, 166.323)" gradientUnits="userSpaceOnUse">
      <stop offset="0" stop-color="#ff0"/>
      <stop offset="0.1" stop-color="#2d8e61" stop-opacity="0.906"/>
      <stop offset="0.229" stop-color="#3f1ec2" stop-opacity="0.816"/>
      <stop offset="0.511" stop-color="#7f1486" stop-opacity="0.636"/>
      <stop offset="1" stop-color="#fff" stop-opacity="0"/>
    </linearGradient>
  </defs>
  <title>TeXstudio Logo</title>
  <path d="M43.575,24A15.74,15.74,0,0,0,27.852,39.723V232.692a15.741,15.741,0,0,0,15.723,15.724H236.544a15.742,15.742,0,0,0,15.724-15.724V39.723A15.741,15.741,0,0,0,236.544,24H43.575Z" opacity="0.2" style="isolation: isolate"/>
  <path d="M242.268,225.692a12.725,12.725,0,0,1-12.724,12.724H36.575a12.724,12.724,0,0,1-12.723-12.724V32.723A12.723,12.723,0,0,1,36.575,20H229.544a12.724,12.724,0,0,1,12.724,12.723V225.692h0Z" fill="#5a008c"/>
  <path d="M36.575,25.3a7.431,7.431,0,0,0-7.422,7.422V225.692a7.43,7.43,0,0,0,7.422,7.422H229.544a7.43,7.43,0,0,0,7.422-7.422V32.723a7.43,7.43,0,0,0-7.422-7.422H36.575Z" fill="url(#a)"/>
  <path d="M256,256H0V0H256V256Z" fill="none"/>
  <g>
    <path d="M69.825,24.789V70.013h0.127a10.265,10.265,0,0,0,2.214,5.155c2.229,2.782,5.149,3.471,6.546,1.55a4.437,4.437,0,0,0,.727-2.657H79.5V24.789H69.825Z" stroke="#0a0a0a" stroke-linecap="round" stroke-linejoin="round" stroke-width="0.651" fill="url(#b)"/>
    <path d="M80.486,74.134c-0.6.83-1.874,0.529-2.837-.673S76.394,70.61,77,69.78s1.874-.529,2.837.673S81.09,73.3,80.486,74.134Z" fill="#b6b6b6" opacity="0.579" style="isolation: isolate"/>
    <path d="M34.346,67.479c-1.111-4.891-1.371-8.267.411-12.4A25.444,25.444,0,0,1,44.59,44.013c4.243-2.751,7.081-5.391,12.173-4.7,5.335,0.725,5.336,1.3,8.882,4.918C68.851,47.5,72.7,53.629,75.3,56.5l15.27,14.554c-3.1-.269-16.013,3.167-19.818,5.38-7.443,8.365-9.5,9.729-12.4,17.52-8.6-9.082-23.588-23.53-24.009-26.478h0Z" fill="#232323" stroke="#000" stroke-linecap="round" stroke-linejoin="round" stroke-width="2"/>
    <path d="M53.64,40.435L84.981,71.356C78.612,72.84,74.127,74.2,70.756,76.788L42.5,45.7c1.691-.8,4.379-3.368,5.477-4.047s2.052-.583,3.376-1.071c1.045-.385.923-0.06,2.288-0.148h0Z" opacity="0.8" fill="url(#c)" style="isolation: isolate"/>
    <path d="M45.846,80.769c0.018-9.412,4.618-14.408,7.275-16.627,5.852-4.887,15.637-9.184,22.814-6.653" fill="none" opacity="0.579" stroke="url(#d)" style="isolation: isolate"/>
    <path d="M46.869,81.28c0.018-9.412,4.618-14.408,7.275-16.627C59.995,59.766,69.78,55.469,76.958,58" fill="none" stroke="url(#e)"/>
    <path d="M47.87,82.793c0.018-9.412,4.618-14.408,7.275-16.627C61,61.279,70.782,56.982,77.959,59.512" fill="none" opacity="0.579" stroke="url(#f)" style="isolation: isolate"/>
    <path d="M48.893,83.3c0.018-9.412,4.618-14.408,7.275-16.627,5.852-4.887,15.637-9.184,22.814-6.653" fill="none" stroke="url(#g)"/>
    <path d="M43.822,78.745C43.84,69.333,48.44,64.337,51.1,62.118c5.852-4.887,15.637-9.184,22.814-6.653" fill="none" opacity="0.579" stroke="url(#h)" style="isolation: isolate"/>
    <path d="M44.845,79.256c0.018-9.412,4.618-14.408,7.275-16.627,5.852-4.887,15.637-9.184,22.814-6.653" fill="none" stroke="url(#i)"/>
    <path d="M34.346,67.479c-1.111-4.891-1.371-8.267.411-12.4A25.444,25.444,0,0,1,44.59,44.013c4.243-2.751,7.081-5.391,12.173-4.7,5.335,0.725,5.336,1.3,8.882,4.918C68.851,47.5,72.7,53.629,75.3,56.5l15.27,14.554c-3.1-.269-16.013,3.167-19.818,5.38-7.443,8.365-9.5,9.729-12.4,17.52-8.6-9.082-23.588-23.53-24.009-26.478h0Z" fill="none" stroke="#000" stroke-linecap="round" stroke-linejoin="round" stroke-width="2"/>
    <path d="M59.647,71.391l47.28-8.768-13.8,42.245L48.4,116.293Z" stroke="#d4d4d4" stroke-linecap="round" stroke-linejoin="round" stroke-width="2" fill="url(#j)"/>
    <path d="M60.158,72.158l47.28-8.768-13.8,42.245L48.913,117.06l11.245-44.9h0Z" stroke="#000" stroke-linecap="round" stroke-linejoin="round" stroke-width="2" fill="url(#k)"/>
    <path d="M87.579,73.823c7.042,1.452,8.254,9.762,2.708,18.561s-15.751,14.754-22.793,13.3-8.254-9.762-2.708-18.561S80.538,72.371,87.579,73.823Z" fill="#ababab"/>
    <path d="M41.489,24.789V70.013h0.127a10.265,10.265,0,0,0,2.214,5.155c2.229,2.782,5.149,3.471,6.546,1.55a4.437,4.437,0,0,0,.727-2.657h0.063V24.789H41.489Z" stroke="#0a0a0a" stroke-linecap="round" stroke-linejoin="round" stroke-width="0.651" fill="url(#l)"/>
    <path d="M48.1,74.134c-0.6.83-1.874,0.529-2.837-.673s-1.255-2.85-.651-3.68,1.874-.529,2.837.673S48.706,73.3,48.1,74.134Z" fill="#b6b6b6" opacity="0.579" style="isolation: isolate"/>
    <path d="M91.6,75.944c4.474,4.62,1.805,14.549-5.962,22.176-5.37,5.274-12.033,8.268-17.172,7.717" fill="#ababab" stroke-linecap="round" stroke-linejoin="round" stroke-width="1.486" opacity="0.867" stroke="url(#m)" style="isolation: isolate"/>
  </g>
  <path d="M150.4,231.9c26.156-.142,85.156-11.552,85.407-33.888,0.08-7.128-3.619-11.005-6.634-13.608C204.464,163.074,134.939,112.616,87,78.048,80.414,73.3,65,87.483,65.351,95.779c0.984,22.99.83,69.513,1.185,101.288,0.316,28.274,57.711,34.978,83.866,34.836h0Z" fill="url(#n)"/>
  <g>
    <path d="M163.842,84.1a6.318,6.318,0,0,0,1.956-.274,1.558,1.558,0,0,0,1.135-1.436,1.257,1.257,0,0,0-1.423-1.149,3.7,3.7,0,0,0-3.5,3.734,2.156,2.156,0,0,0,2.065,2.435,3.624,3.624,0,0,0,3.037-1.628,0.161,0.161,0,0,0-.137-0.15,0.289,0.289,0,0,0-.178.137,3.5,3.5,0,0,1-2.695,1.368c-0.78,0-1.19-.616-1.19-1.628a5.6,5.6,0,0,1,.205-1.409h0.725Zm-0.657-.274c0.588-2.106,1.888-2.312,2.325-2.312a0.9,0.9,0,0,1,1.012.875c0,1.436-2.189,1.436-2.763,1.436h-0.574Z" fill="#fff"/>
    <path d="M170.8,80a0.105,0.105,0,0,0-.114-0.1c-0.1,0-.114.034-0.171,0.228-0.3,1.038-.764,1.391-1.14,1.391-0.137,0-.3-0.034-0.3-0.376a3.133,3.133,0,0,1,.262-0.992l0.8-2.121a1.491,1.491,0,0,0,.114-0.513,0.883,0.883,0,0,0-.9-0.912c-1.049,0-1.471,1.653-1.471,1.745a0.116,0.116,0,0,0,.125.1c0.1,0,.114-0.046.16-0.205,0.274-.958.707-1.414,1.152-1.414,0.1,0,.3.011,0.3,0.376a3.06,3.06,0,0,1-.239.924l-0.8,2.121a1.608,1.608,0,0,0-.137.57,0.88,0.88,0,0,0,.9.924C170.394,81.741,170.8,80.076,170.8,80Zm-0.091-5.485a0.381,0.381,0,0,0-.388-0.376,0.59,0.59,0,0,0-.559.547,0.368,0.368,0,0,0,.376.376A0.6,0.6,0,0,0,170.713,74.512Z" fill="#fff"/>
    <path d="M174.325,77.328h1.288a12.737,12.737,0,0,0-.5,3.022c0,0.16,0,1.391.467,1.391a0.457,0.457,0,0,0,.445-0.41,0.487,0.487,0,0,0-.08-0.251,5.718,5.718,0,0,1-.308-1.847,8.9,8.9,0,0,1,.239-1.9h1.277a0.424,0.424,0,0,0,.525-0.365c0-.251-0.217-0.251-0.422-0.251H173.5a1.415,1.415,0,0,0-1.174.559,4.421,4.421,0,0,0-.661,1,0.1,0.1,0,0,0,.125.091,0.169,0.169,0,0,0,.148-0.1,1.592,1.592,0,0,1,1.471-.935h0.65a23.055,23.055,0,0,1-1.471,3.843,0.492,0.492,0,0,0-.091.274,0.291,0.291,0,0,0,.308.3c0.331,0,.422-0.3.559-0.775,0.182-.582.182-0.6,0.3-1.06Z" fill="#fff"/>
    <path d="M186.6,84.1h3.625c0.191,0,.424,0,0.424-0.233s-0.219-.246-0.424-0.246H186.6V80c0-.191,0-0.424-0.233-0.424s-0.246.219-.246,0.424v3.625H182.5c-0.191,0-.424,0-0.424.233s0.219,0.246.424,0.246h3.625v3.625c0,0.191,0,.424.233,0.424s0.246-.219.246-0.424V84.1Z" fill="#fff"/>
    <path d="M197.931,78.534c0-.287-0.014-0.3-0.205-0.3a2.761,2.761,0,0,1-2.106.875,0.166,0.166,0,0,0-.123.027,1.109,1.109,0,0,0-.014.342,3.48,3.48,0,0,0,1.682-.41v7.209c0,0.479-.027.643-1.2,0.643h-0.41v0.356c0.657-.014,1.34-0.027,2-0.027s1.34,0.014,2,.027V86.919h-0.41c-1.176,0-1.2-.15-1.2-0.643V78.534Z" fill="#fff"/>
    <path d="M213.137,82.884c0.205,0,.41,0,0.41-0.233s-0.233-.246-0.465-0.246h-7.646c-0.233,0-.465,0-0.465.246s0.205,0.233.41,0.233h7.756Zm-0.055,2.435c0.233,0,.465,0,0.465-0.246s-0.205-.233-0.41-0.233h-7.756c-0.205,0-.41,0-0.41.233s0.233,0.246.465,0.246h7.646Z" fill="#fff"/>
    <path d="M223.7,82.884a7.461,7.461,0,0,0-.588-3.351,2.221,2.221,0,0,0-4.035-.014,7.237,7.237,0,0,0-.6,3.365,8.088,8.088,0,0,0,.438,3.009,2.268,2.268,0,0,0,4.322.041A7.745,7.745,0,0,0,223.7,82.884Zm-2.613,4.391c-0.875,0-1.4-.752-1.587-1.792a17.1,17.1,0,0,1-.15-2.749,13.338,13.338,0,0,1,.178-2.763,1.681,1.681,0,0,1,1.559-1.518,1.658,1.658,0,0,1,1.546,1.491,13.06,13.06,0,0,1,.191,2.79,15.466,15.466,0,0,1-.164,2.79C222.369,87.015,221.562,87.275,221.083,87.275Z" fill="#fff"/>
  </g>
  <g>
    <path d="M150.951,53.928a0.115,0.115,0,0,0-.125-0.112c-0.112,0-.125.037-0.187,0.25-0.324,1.135-.836,1.522-1.247,1.522-0.15,0-.324-0.037-0.324-0.412a3.428,3.428,0,0,1,.287-1.085l0.873-2.32a1.631,1.631,0,0,0,.125-0.561,0.967,0.967,0,0,0-.986-1c-1.148,0-1.609,1.809-1.609,1.909a0.127,0.127,0,0,0,.137.112c0.112,0,.125-0.05.175-0.225,0.3-1.048.773-1.547,1.26-1.547,0.112,0,.324.012,0.324,0.412a3.348,3.348,0,0,1-.262,1.01l-0.873,2.32a1.76,1.76,0,0,0-.15.624,0.963,0.963,0,0,0,.986,1.01C150.5,55.837,150.951,54.016,150.951,53.928Zm-0.1-6a0.417,0.417,0,0,0-.424-0.412,0.645,0.645,0,0,0-.611.6,0.4,0.4,0,0,0,.412.412A0.658,0.658,0,0,0,150.852,47.928Z" fill="#fff"/>
    <path d="M163.458,51.67c0.175,0,.4,0,0.4-0.225s-0.212-.237-0.4-0.237h-7.348c-0.175,0-.4,0-0.4.225s0.212,0.237.4,0.237h7.348Zm0,2.32c0.175,0,.4,0,0.4-0.225s-0.212-.237-0.4-0.237h-7.348c-0.175,0-.4,0-0.4.225s0.212,0.237.4,0.237h7.348Z" fill="#fff"/>
    <path d="M172.821,55.97l-2.2-4.853c-0.087-.2-0.15-0.2-0.187-0.2a0.382,0.382,0,0,0-.212.1l-1.185.9a0.256,0.256,0,0,0-.162.2,0.127,0.127,0,0,0,.125.137,1.672,1.672,0,0,0,.424-0.274c0.075-.062.262-0.2,0.4-0.3l2.458,5.4a0.233,0.233,0,0,0,.262.2,0.3,0.3,0,0,0,.312-0.249L178.522,45.3a0.552,0.552,0,0,0,.087-0.249,0.25,0.25,0,0,0-.25-0.25,0.35,0.35,0,0,0-.287.262Z" fill="#fff"/>
    <rect x="178.364" y="44.804" width="15.81" height="0.499" fill="#fff"/>
    <path d="M186.585,52.843c0.212,0,.437,0,0.437-0.249s-0.225-.25-0.437-0.25h-6.749c-0.212,0-.437,0-0.437.25s0.225,0.249.437,0.249h6.749Z" fill="#fff"/>
    <path d="M191.623,47.716c0-.287,0-0.3-0.249-0.3a2.768,2.768,0,0,1-2.208.8v0.362a3.6,3.6,0,0,0,1.6-.324v6.5c0,0.449-.037.6-1.135,0.6H189.24v0.362c0.337-.025,1.547-0.025,1.959-0.025s1.609,0,1.946.025V55.35h-0.387c-1.1,0-1.135-.15-1.135-0.6V47.716Z" fill="#fff"/>
  </g>
  <g style="isolation: isolate">
    <g style="isolation: isolate">
      <path d="M124.608,136.56l0.7,14.907H123.53a18.037,18.037,0,0,0-1.406-5.626,9.423,9.423,0,0,0-3.867-4.008,13.491,13.491,0,0,0-6.352-1.289h-8.954v48.565q0,5.861,1.266,7.313,1.781,1.969,5.484,1.969h2.2v1.734H84.949v-1.734H87.2q4.031,0,5.719-2.437,1.031-1.5,1.031-6.845V140.544H86.309a21.307,21.307,0,0,0-6.329.656,8.686,8.686,0,0,0-4.172,3.422,13.848,13.848,0,0,0-2.062,6.845H71.964l0.75-14.907h51.894Z" fill="#ffe601"/>
      <path d="M132.789,168.475V193.6h13.969q5.438,0,7.268-1.641,2.435-2.156,2.719-7.595h1.734v22.127h-1.734a24.287,24.287,0,0,0-1.312-5.954,5.868,5.868,0,0,0-2.766-2.578,14.137,14.137,0,0,0-5.908-.937H132.789v20.954a19.472,19.472,0,0,0,.375,5.134,2.948,2.948,0,0,0,1.313,1.453,7.971,7.971,0,0,0,3.563.539H148.82a29.226,29.226,0,0,0,7.83-.75,11.675,11.675,0,0,0,4.688-2.953,36.059,36.059,0,0,0,5.953-8.767h1.875l-5.484,15.938H114.694v-1.734h2.25a8.917,8.917,0,0,0,4.266-1.078,3.943,3.943,0,0,0,2.039-2.25,22.089,22.089,0,0,0,.539-6.142v-41.3q0-6.047-1.219-7.453-1.687-1.875-5.625-1.875h-2.25v-1.734h48.988l0.7,13.923h-1.828a21.981,21.981,0,0,0-2.18-6.892,7.491,7.491,0,0,0-3.539-2.859,21.241,21.241,0,0,0-6.609-.7H132.789Z" fill="#ffe601"/>
      <path d="M207.488,164.921l13.642,20.345q5.67,8.438,8.414,10.665a11.768,11.768,0,0,0,6.962,2.461v1.734H209.223v-1.734a12.334,12.334,0,0,0,4.031-.562,3.84,3.84,0,0,0,1.617-1.289,2.961,2.961,0,0,0,.633-1.758,5.888,5.888,0,0,0-.422-2.157A36.945,36.945,0,0,0,212.5,188.5l-10.782-16.313L188.408,189.25a25.7,25.7,0,0,0-2.531,3.634,4.481,4.481,0,0,0-.422,1.9,3.023,3.023,0,0,0,1.266,2.484q1.266,0.984,4.829,1.125v1.734H169v-1.734a13.783,13.783,0,0,0,4.125-.984,23.923,23.923,0,0,0,5.532-3.281,38.656,38.656,0,0,0,6-6.329l15-18.938-12.517-18.329q-5.109-7.455-8.672-9.774a15.594,15.594,0,0,0-8.2-2.461V136.56h29.393v1.734q-3.751.141-5.133,1.219a3.044,3.044,0,0,0-1.383,2.391q0,1.734,2.25,5.063l9.75,14.579,11.3-14.3a24.508,24.508,0,0,0,2.414-3.469,4.434,4.434,0,0,0,.445-1.922,2.812,2.812,0,0,0-.562-1.734,3.756,3.756,0,0,0-1.781-1.383,16.3,16.3,0,0,0-4.453-.445V136.56h22.548v1.734a13.3,13.3,0,0,0-4.359.844,17.547,17.547,0,0,0-4.641,2.906,52.35,52.35,0,0,0-5.954,6.751Z" fill="#ffe601"/>
    </g>
  </g>
</svg>